Coordinates
version=1
nRows=8
nColumns=28
inDegrees=yes

Units are S.I. units (second, meters, Newtons, ...)
Angles are in degrees.

endheader
time	pelvis_tilt	pelvis_list	pelvis_rotation	pelvis_tx	pelvis_ty	pelvis_tz	hip_flexion_r	hip_adduction_r	hip_rotation_r	knee_angle_r	ankle_angle_r	subtalar_angle_r	mtp_angle_r	hip_flexion_l	hip_adduction_l	hip_rotation_l	knee_angle_l	socket_flexion	socket_adduction	socket_rotation	socket_tx	socket_ty	socket_tz	foot_flex	lumbar_extension	lumbar_bending	lumbar_rotation
      0.32500000	      3.40704523	     -0.98128141	     -5.60150746	     -0.42220417	      1.01697429	      0.28424443	     12.56739312	      1.26235454	      2.91458933	    -64.95125705	      3.16698176	    -13.43677671	     29.06329984	     -5.28725106	     -0.32842125	      9.11660665	      7.49633299	      5.05611999	      0.00000000	      0.00000000	      0.00000000	      0.00000000	      0.00000000	      2.05269570	    -11.99544168	     -2.32927083	      5.68402288
      0.32916667	      3.43971846	     -1.15482994	     -5.41452901	     -0.41711362	      1.01729833	      0.28353940	     12.99298339	      1.44422600	      2.78585911	    -64.56116793	      3.71072588	    -12.60589537	     29.31631964	     -5.80319822	     -0.49449363	      9.28160142	      7.91982735	      5.25384753	      0.00000000	      0.00000000	      0.00000000	      0.00000000	      0.00000000	      2.08959151	    -11.99732981	     -2.03241628	      5.28299855
      0.33333333	      3.50848043	     -1.15564308	     -5.31507860	     -0.41260979	      1.01762500	      0.28306872	     13.50766129	      1.48726114	      2.79020540	    -64.27526949	      3.75718689	    -12.59992400	     29.31447509	     -6.08909620	     -0.43258124	      9.30023394	      7.69227411	      5.03233842	      0.00000000	      0.00000000	      0.00000000	      0.00000000	      0.00000000	      2.13149799	    -12.10257411	     -2.02441396	      5.27411955
      0.33750000	      3.49048732	     -1.38975227	     -5.14892019	     -0.40773775	      1.01787229	      0.28251216	     13.97365738	      1.79268557	      2.71408790	    -63.81401600	      4.46114288	    -12.21422591	     29.50762876	     -6.50975483	     -0.68563476	      9.50038767	      8.03222135	      5.20145945	      0.00000000	      0.00000000	      0.00000000	      0.00000000	      0.00000000	      2.26359605	    -12.09723375	     -1.66492394	      4.96742263
      0.34166667	      3.55571505	     -1.38577253	     -5.05895185	     -0.40330646	      1.01812513	      0.28210355	     14.49060493	      1.82851627	      2.71957661	    -63.49261327	      4.50381208	    -12.20632733	     29.50311217	     -6.78781657	     -0.62468263	      9.52424917	      7.80581171	      4.98192505	      0.00000000	      0.00000000	      0.00000000	      0.00000000	      0.00000000	      2.31610779	    -12.21298367	     -1.66387718	      4.95546656
      0.34583333	      3.55148551	     -1.62222339	     -4.87249184	     -0.39843359	      1.01835304	      0.28158132	     14.90473838	      2.13702506	      2.64433950	    -62.93614809	      5.11353505	    -11.87919814	     29.63323012	     -7.23457889	     -0.89010986	      9.73895862	      8.18805511	      5.18716907	      0.00000000	      0.00000000	      0.00000000	      0.00000000	      0.00000000	      2.48322500	    -12.21306136	     -1.31040478	      4.63061640
      0.35000000	      3.61038637	     -1.61221719	     -4.79393114	     -0.39405839	      1.01853689	      0.28120948	     15.41923771	      2.16454813	      2.64701571	    -62.57417252	      5.15715240	    -11.87343852	     29.62604694	     -7.50336769	     -0.82589257	      9.76322959	      7.96793653	      4.97333918	      0.00000000	      0.00000000	      0.00000000	      0.00000000	      0.00000000	      2.53590258	    -12.33831574	     -1.31330501	      4.61716399
      0.35416667	      3.58612237	     -1.83087285	     -4.59938890	     -0.38926104	      1.01868878	      0.28071248	     15.83885505	      2.45770579	      2.59365641	    -61.95994291	      5.70968733	    -11.71979870	     29.69725495	     -7.88846112	     -1.07588109	      9.96637379	      8.26883021	      5.14638503	      0.00000000	      0.00000000	      0.00000000	      0.00000000	      0.00000000	      2.73753974	    -12.32264972	     -0.99846381	      4.35896233
